<svg xmlns="http://www.w3.org/2000/svg" version="1.1" viewBox="-5.0 -10.0 110.0 135.0">
  <path d="m49.824 96.379c-16.695 0-26.328-7.9727-27.215-15.883-0.30469-2.7148-0.023437-11.352 14.387-15.961l-10.598-17.016c-11.875-17.941 1.6836-44.727 23.648-43.898 21.836-0.8125 35.445 25.98 23.555 43.895-2.5 4.0117-6.543 10.508-10.566 16.961 26.648 9.3281 13.301 32.512-13.211 31.902zm-9.3945-26.34c-20.918 5.8125-10.812 20.188 9.4102 20.09 20.766 0.019532 30.582-14.297 9.7578-20.133-2.2148 3.5391-5.2656 8.4414-6.9414 11.113v-0.003906c-0.58203 0.94141-1.6172 1.5078-2.7266 1.4844h-0.027344l-0.003906-0.003906c-0.29297-0.007813-0.58594-0.058594-0.86719-0.14844l-0.011719-0.003906-0.007812-0.007813h-0.007813l-0.003906-0.003906-0.007812-0.003906h-0.007813l-0.011719-0.007813h-0.007812l-0.011719-0.007812-0.015625-0.007813h-0.007812l-0.003907-0.003906h-0.007812l-0.003907-0.003906h-0.007812l-0.007812-0.007813h-0.007813l-0.011719-0.007812-0.007812-0.003906 0.011718 0.011718c-0.63672-0.24219-1.1758-0.68359-1.5352-1.2617zm9.2969-60.168c-16.961-0.44141-27.223 20.613-18.035 34.328l18.309 29.367c5.7383-9.1875 14.066-22.555 18.309-29.367 9.3438-13.895-1.4297-35.281-18.582-34.328zm0.27344 34.832c-17.434-0.30469-17.422-25.879 0-26.18 17.516 0.32422 17.293 25.902 0 26.18zm-6.9258-13.094c-0.039063 1.8438 0.67969 3.6211 1.9883 4.9141 1.3086 1.2969 3.0977 1.9922 4.9375 1.9297 1.8203 0.007813 3.5703-0.70703 4.8633-1.9922 1.2891-1.2812 2.0156-3.0273 2.0156-4.8477 0-1.8242-0.72656-3.5703-2.0156-4.8516-1.293-1.2852-3.043-2-4.8633-1.9922-1.8398-0.0625-3.625 0.63281-4.9375 1.9297-1.3086 1.293-2.0273 3.0703-1.9883 4.9102z" fill="white"/>
</svg>
