<svg xmlns="http://www.w3.org/2000/svg" xmlns:xlink="http://www.w3.org/1999/xlink" version="1.1"  viewBox="0 0 80 60" style="enable-background:new 0 0 90 90;" >
  <path fill="#ffff" d="M9.5058594,41.6958008c-0.2763672,0-0.5,0.2236328-0.5,0.5v5.6083984c0,0.2763672,0.2236328,0.5,0.5,0.5  s0.5-0.2236328,0.5-0.5V45.5h27.5932617c0.2763672,0,0.5-0.2236328,0.5-0.5s-0.2236328-0.5-0.5-0.5H10.0058594v-2.3041992  C10.0058594,41.9194336,9.7822266,41.6958008,9.5058594,41.6958008z"/>
  <path fill="#ffff" d="M80.4941406,41.6958008c-0.2763672,0-0.5,0.2236328-0.5,0.5V44.5H52.4008789c-0.2763672,0-0.5,0.2236328-0.5,0.5  s0.2236328,0.5,0.5,0.5h27.5932617v2.3041992c0,0.2763672,0.2236328,0.5,0.5,0.5s0.5-0.2236328,0.5-0.5v-5.6083984  C80.9941406,41.9194336,80.7705078,41.6958008,80.4941406,41.6958008z"/>
  <path fill="#ffff" d="M48.5522461,44.6464844l-3.1987305-3.1987305c-0.1953125-0.1953125-0.5117188-0.1953125-0.7070313,0l-3.1987305,3.1987305  c-0.1953125,0.1953125-0.1953125,0.5117188,0,0.7070313l3.1987305,3.1987305  C44.7441406,48.6499023,44.8720703,48.6987305,45,48.6987305s0.2558594-0.0488281,0.3535156-0.1464844l3.1987305-3.1987305  C48.7475586,45.1582031,48.7475586,44.8417969,48.5522461,44.6464844z M45,47.4916992L42.5083008,45L45,42.5083008L47.4916992,45  L45,47.4916992z"/>
  <path fill="#ffff" d="M51.0805664,46.7441406v-3.4882813c0-0.2763672-0.2236328-0.5-0.5-0.5s-0.5,0.2236328-0.5,0.5v3.4882813  c0,0.2763672,0.2236328,0.5,0.5,0.5S51.0805664,47.0205078,51.0805664,46.7441406z"/>
  <path fill="#ffff" d="M39.9194336,46.7441406v-3.4882813c0-0.2763672-0.2236328-0.5-0.5-0.5s-0.5,0.2236328-0.5,0.5v3.4882813  c0,0.2763672,0.2236328,0.5,0.5,0.5S39.9194336,47.0205078,39.9194336,46.7441406z"/>
  <path fill="#ffff" d="M84.1757813,42.9248047c-1.144043,0-2.0751953,0.9311523-2.0751953,2.0751953s0.9311523,2.0751953,2.0751953,2.0751953  S86.2504883,46.144043,86.2504883,45S85.3198242,42.9248047,84.1757813,42.9248047z M84.1757813,46.0751953  c-0.5927734,0-1.0751953-0.4824219-1.0751953-1.0751953s0.4824219-1.0751953,1.0751953-1.0751953  S85.2504883,44.4072266,85.2504883,45S84.7685547,46.0751953,84.1757813,46.0751953z"/>
  <path fill="#ffff" d="M5.824707,42.9248047c-1.144043,0-2.0751953,0.9311523-2.0751953,2.0751953s0.9311523,2.0751953,2.0751953,2.0751953  S7.8994141,46.144043,7.8994141,45S6.96875,42.9248047,5.824707,42.9248047z M5.824707,46.0751953  c-0.5927734,0-1.0751953-0.4824219-1.0751953-1.0751953s0.4824219-1.0751953,1.0751953-1.0751953S6.8994141,44.4072266,6.8994141,45  S6.4174805,46.0751953,5.824707,46.0751953z"/>
  <path fill="#ffff" d="M44.6464844,43.3735352l-1.2729492,1.2729492c-0.1953125,0.1953125-0.1953125,0.5117188,0,0.7070313l1.2729492,1.2729492  C44.7441406,46.7241211,44.8720703,46.7729492,45,46.7729492s0.2558594-0.0488281,0.3535156-0.1464844l1.2729492-1.2729492  c0.1953125-0.1953125,0.1953125-0.5117188,0-0.7070313l-1.2729492-1.2729492  C45.1582031,43.1782227,44.8417969,43.1782227,44.6464844,43.3735352z M45.565918,45L45,45.565918L44.434082,45L45,44.434082  L45.565918,45z"/>
</svg>
