<svg xmlns="http://www.w3.org/2000/svg" viewBox="0 0 119 148.75" x="0px" y="0px"><path fill="#ffff" d="M91.78,40.8H52.63c-1.66,0-3-1.34-3-3s1.34-3,3-3h39.15c1.66,0,3,1.34,3,3s-1.34,3-3,3Z"/><path fill="#ffff" d="M43.15,40.8h-15.93c-1.66,0-3-1.34-3-3s1.34-3,3-3h15.93c1.66,0,3,1.34,3,3s-1.34,3-3,3Z"/><path fill="#ffff" d="M91.78,62.38H27.22c-1.66,0-3-1.34-3-3s1.34-3,3-3H91.78c1.66,0,3,1.34,3,3s-1.34,3-3,3Z"/><path fill='#ffff' d="M91.78,83.96H27.22c-1.66,0-3-1.34-3-3s1.34-3,3-3H91.78c1.66,0,3,1.34,3,3s-1.34,3-3,3Z"/></svg>