<svg xmlns="http://www.w3.org/2000/svg" xmlns:xlink="http://www.w3.org/1999/xlink" version="1.1" x="0px" y="0px" viewBox="0 0 32 40" style="enable-background:new 0 0 32 32;" xml:space="preserve"><g><path d="M1.54,14.87c0.04,0.14,0.08,0.27,0.14,0.4c0.02,0.09,0.06,0.19,0.12,0.32l0.05,0.13c0.01,0.02,0.01,0.03,0.02,0.05   c0.02,0.05,0.04,0.09,0.06,0.14c0,0.01,0.01,0.02,0.01,0.02c0.05,0.12,0.11,0.24,0.16,0.35l0.07,0.15c0.06,0.12,0.13,0.24,0.2,0.36   c0.06,0.11,0.13,0.22,0.2,0.33l0.15,0.24c0.1,0.15,0.21,0.3,0.32,0.45c0.08,0.11,0.16,0.21,0.24,0.31c0.11,0.14,0.22,0.27,0.33,0.4   c0.07,0.08,0.14,0.15,0.21,0.23l0.14,0.14c0.01,0.01,0.02,0.02,0.03,0.03l0.07,0.07c0.07,0.07,0.15,0.14,0.23,0.21   c0.09,0.07,0.18,0.15,0.26,0.23c0.02,0.01,0.08,0.08,0.1,0.09c0.08,0.05,0.15,0.11,0.23,0.17l0.04,0.03   c0.01,0.01,0.01,0.01,0.02,0.02c1.69,1.28,3.14,4.57,4.31,7.22c0.38,0.86,0.73,1.65,1.05,2.29c0.01,0.01,0.02,0.02,0.03,0.03   c0.03,0.05,0.07,0.09,0.12,0.12c0.02,0.02,0.04,0.04,0.07,0.05c0,0,0.01,0.01,0.01,0.01c0.04,0.02,0.08,0.02,0.12,0.03   c0.03,0.01,0.07,0.03,0.1,0.03c0.08,0,0.15-0.02,0.22-0.05c0.01-0.01,0.02-0.02,0.03-0.02c0.01,0,0.01-0.01,0.02-0.01   c0.07-0.04,0.12-0.1,0.16-0.17c0-0.01,0.01-0.01,0.02-0.02c0.23-0.47,0.48-1.02,0.75-1.62l0.41-0.91c0.11-0.25,0-0.55-0.25-0.66   c-0.25-0.11-0.55,0-0.66,0.25l-0.41,0.92c-0.1,0.22-0.19,0.43-0.29,0.63c-0.18-0.41-0.38-0.84-0.58-1.29   c-1.19-2.71-2.68-6.07-4.53-7.54C5.62,19.01,5.61,19,5.6,18.99l-0.09-0.07c-0.29-0.22-0.56-0.46-0.82-0.71l-0.03-0.03   c-0.22-0.22-0.42-0.46-0.62-0.7c-0.07-0.09-0.14-0.18-0.21-0.27c-0.15-0.2-0.29-0.41-0.43-0.63l-0.13-0.21   c-0.02-0.03-0.03-0.05-0.04-0.07c-0.15-0.27-0.29-0.54-0.42-0.82c-0.01-0.03-0.02-0.05-0.03-0.08c-0.12-0.3-0.23-0.6-0.32-0.91   c-0.02-0.07-0.04-0.16-0.06-0.23c-0.07-0.28-0.13-0.56-0.18-0.84c0-0.03-0.01-0.06-0.02-0.1c0-0.01-0.01-0.05-0.01-0.08   c-0.04-0.31-0.07-0.62-0.07-0.93c0-0.05,0-0.1-0.01-0.16c0-0.34,0.01-0.69,0.05-1.03c0.01-0.15,0.04-0.29,0.06-0.43   c0.05-0.32,0.11-0.63,0.2-0.93c0.01-0.02,0.01-0.04,0.02-0.07c0.01-0.03,0.02-0.05,0.03-0.08C2.5,9.55,2.52,9.49,2.54,9.43   C2.56,9.38,2.58,9.32,2.6,9.27C2.67,9.03,2.76,8.8,2.86,8.58c0.01-0.02,0.02-0.04,0.03-0.06c0.08-0.19,0.16-0.36,0.27-0.54   c0,0,0,0,0,0c0.03-0.06,0.06-0.11,0.09-0.17C3.31,7.71,3.38,7.6,3.44,7.49C3.5,7.4,3.56,7.31,3.62,7.23   C3.7,7.1,3.79,6.98,3.88,6.86c0.04-0.05,0.07-0.09,0.11-0.14C4.2,6.45,4.43,6.2,4.67,5.96C4.73,5.9,4.78,5.85,4.84,5.8   c0.2-0.19,0.4-0.36,0.62-0.53c0.07-0.05,0.13-0.1,0.2-0.15c0.28-0.2,0.57-0.39,0.88-0.56C6.57,4.54,6.6,4.52,6.63,4.5   c0.33-0.18,0.68-0.34,1.04-0.48C7.69,4.01,7.71,4,7.72,4c0.17-0.06,0.33-0.12,0.5-0.17c0.02-0.01,0.03-0.01,0.06-0.02   C8.42,3.77,8.56,3.74,8.7,3.7c0.1-0.02,0.2-0.06,0.31-0.08c0,0,0.01,0,0.01,0c0.03-0.01,0.06-0.01,0.09-0.01   c0.02,0,0.03,0,0.05-0.01c0.77-0.16,1.7-0.19,2.56-0.1c0.2,0.03,0.39,0.05,0.58,0.09c0.04,0.01,0.11,0.03,0.15,0.03   c0.01,0,0.11,0.02,0.12,0.02c0.05,0.02,0.09,0.03,0.14,0.03c0.16,0.04,0.32,0.08,0.54,0.14c0.05,0.02,0.11,0.03,0.22,0.07   c0.12,0.03,0.22,0.08,0.4,0.14l0.46,0.2c0.06,0.03,0.11,0.05,0.21,0.1c0.04,0.02,0.08,0.03,0.12,0.06   c0.04,0.02,0.09,0.05,0.15,0.08l0.1,0.06c0.07,0.04,0.14,0.08,0.22,0.13c0.21,0.12,0.41,0.26,0.6,0.39c0.14,0.1,0.28,0.2,0.45,0.35   c0.12,0.09,0.25,0.21,0.4,0.34c0.12,0.1,0.23,0.21,0.36,0.35c0.12,0.12,0.24,0.25,0.36,0.39c0.08,0.09,0.16,0.18,0.26,0.31   c0.07,0.07,0.12,0.15,0.17,0.23c0.01,0.02,0.1,0.14,0.11,0.16c0,0,0.01,0.01,0.01,0.01l0.1,0.15c0.06,0.1,0.13,0.19,0.19,0.3   c0.05,0.07,0.09,0.15,0.14,0.24c0.01,0.03,0.02,0.06,0.04,0.09c0.11,0.19,0.2,0.37,0.29,0.57c0.11,0.24,0.22,0.51,0.31,0.81   c0,0.02,0.03,0.08,0.03,0.1c0.02,0.04,0.03,0.09,0.04,0.14c0.01,0.03,0.02,0.06,0.03,0.08c0.06,0.22,0.12,0.43,0.16,0.63   c0.04,0.19,0.06,0.36,0.09,0.55l0.03,0.24c0,0.02,0.01,0.04,0.02,0.06c0.01,0.04,0.02,0.07,0.03,0.1c0.01,0.02,0.03,0.04,0.04,0.06   c0.02,0.04,0.05,0.07,0.08,0.1c0.01,0.01,0.02,0.01,0.03,0.02c0.04,0.03,0.08,0.05,0.13,0.07c0.02,0.01,0.03,0.01,0.05,0.01   c0.03,0.01,0.07,0.02,0.1,0.02c0.01,0,0.02,0,0.03-0.01c0.01,0,0.02,0,0.02,0c0.03,0,0.05-0.02,0.07-0.02   c0.03-0.01,0.06-0.02,0.09-0.03c0.03-0.01,0.05-0.03,0.08-0.05c0.03-0.02,0.05-0.04,0.07-0.06c0.02-0.02,0.04-0.05,0.05-0.08   c0.02-0.03,0.03-0.05,0.04-0.08c0.01-0.03,0.01-0.06,0.02-0.1c0-0.02,0.01-0.05,0.01-0.07c0-0.02,0-0.09,0-0.11l-0.01-0.1   c0,0-0.01-0.1-0.01-0.1c-0.03-0.2-0.06-0.4-0.1-0.62c-0.06-0.25-0.12-0.5-0.19-0.74c0,0,0-0.01,0-0.01c0,0,0,0,0,0c0,0,0,0,0,0   c-0.02-0.09-0.05-0.2-0.11-0.34c-0.1-0.31-0.22-0.61-0.34-0.88c-0.09-0.21-0.19-0.41-0.3-0.62c0-0.01-0.01-0.02-0.01-0.03   c-0.06-0.13-0.14-0.26-0.2-0.36c0,0,0,0,0,0c0,0,0-0.01-0.01-0.01c0,0,0-0.01-0.01-0.01c-0.07-0.11-0.13-0.22-0.22-0.36   c-0.04-0.05-0.06-0.08-0.06-0.08c-0.05-0.1-0.11-0.17-0.13-0.19c-0.08-0.13-0.17-0.25-0.25-0.33c-0.09-0.12-0.19-0.24-0.27-0.33   c0,0,0,0,0,0c0,0-0.01-0.01-0.01-0.01c-0.13-0.15-0.26-0.3-0.39-0.43c-0.07-0.08-0.15-0.16-0.22-0.22   c-0.07-0.07-0.14-0.13-0.21-0.18c-0.15-0.16-0.3-0.28-0.4-0.35c-0.17-0.16-0.34-0.28-0.5-0.4c-0.01-0.01-0.01-0.01-0.02-0.01   c0,0,0,0,0,0c0,0,0,0,0,0c-0.24-0.19-0.46-0.32-0.61-0.4c-0.01-0.01-0.02-0.02-0.03-0.02c0,0-0.01,0-0.01-0.01   c-0.11-0.08-0.23-0.15-0.39-0.23c-0.1-0.06-0.21-0.12-0.28-0.14c-0.07-0.04-0.14-0.07-0.22-0.11l-0.03-0.01   c-0.04-0.02-0.08-0.04-0.12-0.06l-0.35-0.14c0,0-0.09-0.03-0.09-0.04c-0.13-0.05-0.26-0.1-0.34-0.12   c-0.08-0.04-0.19-0.07-0.36-0.12c-0.18-0.05-0.35-0.1-0.48-0.12c-0.02-0.01-0.07-0.02-0.12-0.03c-0.07-0.02-0.16-0.05-0.22-0.05   c-0.02-0.01-0.07-0.01-0.12-0.02c-0.22-0.05-0.44-0.08-0.67-0.11c0,0,0,0,0,0c0,0,0,0-0.01,0c-0.7-0.08-1.39-0.05-2.06,0.01   C9.74,2.52,9.69,2.51,9.64,2.52C9.28,2.56,8.93,2.62,8.58,2.7c-0.01,0-0.03,0-0.04,0.01c-0.1,0.02-0.21,0.05-0.33,0.08   C8.13,2.82,8.04,2.84,7.95,2.87c0,0,0,0,0,0C7.85,2.9,7.74,2.93,7.72,2.94C7.61,2.97,7.5,3.02,7.36,3.07   C6.96,3.22,6.59,3.39,6.22,3.59c-0.09,0.05-0.18,0.1-0.27,0.15C5.66,3.91,5.38,4.08,5.11,4.28C4.99,4.37,4.88,4.46,4.77,4.55   C4.58,4.69,4.4,4.85,4.23,5.01c-0.1,0.09-0.2,0.18-0.3,0.28C3.69,5.53,3.46,5.8,3.24,6.07C3.22,6.1,3.19,6.12,3.16,6.15   C3.12,6.2,3.09,6.25,3.06,6.3C2.97,6.41,2.89,6.53,2.81,6.64C2.77,6.7,2.73,6.75,2.69,6.8C2.66,6.86,2.63,6.91,2.6,6.97   C2.51,7.1,2.44,7.23,2.36,7.36C2.34,7.4,2.31,7.45,2.28,7.49C2.28,7.5,2.27,7.52,2.27,7.53C2.25,7.55,2.25,7.57,2.23,7.6   C2.15,7.75,2.07,7.91,2,8.08C1.99,8.1,1.97,8.12,1.97,8.14C1.95,8.16,1.95,8.19,1.94,8.21c-0.1,0.23-0.2,0.47-0.28,0.71   C1.65,8.94,1.64,8.97,1.63,9C1.61,9.05,1.59,9.11,1.57,9.16C1.53,9.29,1.5,9.41,1.46,9.54c-0.05,0.19-0.1,0.39-0.15,0.6   c-0.02,0.11-0.03,0.22-0.05,0.33c-0.03,0.16-0.06,0.32-0.08,0.48c0,0.02,0,0.04,0,0.06c0,0.02-0.01,0.04-0.01,0.05   c-0.01,0.1-0.02,0.21-0.03,0.31L1.15,11.5c-0.01,0.19-0.02,0.37-0.02,0.57c0,0.03,0,0.06,0,0.09c0,0.06,0,0.12,0.01,0.18   c0,0.1,0,0.19,0.01,0.3c0.01,0.23,0.03,0.45,0.07,0.74c0.01,0.06,0.01,0.11,0.02,0.17c0.01,0.09,0.02,0.17,0.04,0.24   c0.03,0.17,0.06,0.35,0.09,0.47c0.02,0.09,0.04,0.17,0.07,0.25c0.02,0.09,0.05,0.19,0.07,0.28C1.52,14.81,1.53,14.84,1.54,14.87z"/><path d="M10.74,7.13c-2.73,0-4.94,2.22-4.94,4.94s2.22,4.94,4.94,4.94s4.94-2.22,4.94-4.94S13.47,7.13,10.74,7.13z M10.74,16.01   c-2.17,0-3.94-1.77-3.94-3.94s1.77-3.94,3.94-3.94s3.94,1.77,3.94,3.94S12.91,16.01,10.74,16.01z"/><path d="M22.15,12.01c-0.41-0.31-0.98-0.31-1.39,0l-8.28,6.37c-0.5,0.38-0.59,1.1-0.21,1.59c0.19,0.24,0.45,0.39,0.75,0.43   c0.05,0.01,0.1,0.01,0.15,0.01c0.05,0,0.09-0.02,0.13-0.02v7.8c0,0.28,0.22,0.5,0.5,0.5H29.1c0.28,0,0.5-0.22,0.5-0.5v-7.81   c0.39,0.04,0.79-0.09,1.04-0.41c0.19-0.24,0.27-0.54,0.23-0.84s-0.19-0.57-0.43-0.75L22.15,12.01z M22.83,27.51h-2.74v-3.67h2.74   V27.51z M28.6,27.7h-4.77v-4.36c0-0.28-0.22-0.5-0.5-0.5h-3.74c-0.28,0-0.5,0.22-0.5,0.5v4.36h-4.77v-7.86l7.14-5.49l7.14,5.49   V27.7z M29.85,19.37c-0.04,0.05-0.09,0.05-0.19,0.02l-8.2-6.3l-8.2,6.3c-0.05,0.04-0.15,0.03-0.19-0.02   c-0.05-0.06-0.03-0.15,0.03-0.19l8.28-6.37c0.02-0.02,0.05-0.03,0.08-0.03s0.06,0.01,0.08,0.03l8.28,6.37   c0.04,0.03,0.05,0.06,0.05,0.09C29.88,19.29,29.88,19.33,29.85,19.37z"/></g><text x="0" y="47" fill="#000000" font-size="5px" font-weight="bold" font-family="'Helvetica Neue', Helvetica, Arial-Unicode, Arial, Sans-serif">Created by homlah</text><text x="0" y="52" fill="#000000" font-size="5px" font-weight="bold" font-family="'Helvetica Neue', Helvetica, Arial-Unicode, Arial, Sans-serif">from the Noun Project</text></svg>