<svg xmlns="http://www.w3.org/2000/svg" xmlns:xlink="http://www.w3.org/1999/xlink" version="1.1" x="0px" y="0px" viewBox="0 0 90 112.5" enable-background="new 0 0 90 90" xml:space="preserve"><path d="M45,77.1c-17.7,0-32.1-14.4-32.1-32.1S27.3,12.9,45,12.9S77.1,27.3,77.1,45S62.7,77.1,45,77.1z M45,17.3  c-15.3,0-27.7,12.4-27.7,27.7S29.7,72.7,45,72.7S72.7,60.3,72.7,45S60.3,17.3,45,17.3z"/><path d="M56.6,60.3c-1.7,0.9-5.3,2-10,2c-10.5,0-17.4-7.1-17.4-17.8c0-10.7,7.3-18.5,18.7-18.5c3.7,0,7.1,0.9,8.8,1.8l-1.4,4.9  c-1.5-0.9-3.9-1.7-7.3-1.7c-8,0-12.3,5.9-12.3,13.2c0,8.1,5.2,13,12.1,13c3.6,0,6-0.9,7.8-1.7L56.6,60.3z"/><text x="0" y="105" fill="#000000" font-size="5px" font-weight="bold" font-family="'Helvetica Neue', Helvetica, Arial-Unicode, Arial, Sans-serif">Created by Yoteyo</text><text x="0" y="110" fill="#000000" font-size="5px" font-weight="bold" font-family="'Helvetica Neue', Helvetica, Arial-Unicode, Arial, Sans-serif">from the Noun Project</text></svg>