<svg xmlns="http://www.w3.org/2000/svg" xmlns:xlink="http://www.w3.org/1999/xlink" version="1.1" x="0px" y="0px" viewBox="0 0 30 37.5" style="enable-background:new 0 0 30 30;" xml:space="preserve"><g><g><path d="M22.4,18.6c-0.4-0.4-1-0.5-1.5-0.4l-1.1-1.1c2.4-3.7,2-8.7-1.2-11.9C15,1.6,9,1.6,5.3,5.3s-3.7,9.7,0,13.3    c3.2,3.2,8.1,3.7,11.9,1.2l1.1,1.1c-0.2,0.5,0,1.1,0.4,1.5l4.3,4.3c1,1,2.7,1.1,3.8,0c1.1-1.1,1.1-2.7,0-3.8L22.4,18.6z     M17.5,17.5c-3,3-8,3.1-11.1,0s-3.1-8,0-11.1c3.1-3,8-3.1,11.1,0C20.5,9.4,20.6,14.4,17.5,17.5z"/><path d="M11.9,6.5c-1.4,0-2.7,0.7-3.4,2c-0.7,1.2-0.7,2.7,0.1,3.9l2.9,4.9c0.1,0.1,0.2,0.2,0.4,0.2s0.3-0.1,0.4-0.2    c2.5-4.5,3.5-5.1,3.5-6.9C15.8,8.2,14.1,6.5,11.9,6.5z M11.9,12.2c-1.1,0-1.9-0.9-1.9-1.9c0-1.1,0.9-1.9,1.9-1.9    c1.1,0,1.9,0.9,1.9,1.9C13.9,11.3,13,12.2,11.9,12.2z"/></g></g><text x="0" y="45" fill="#000000" font-size="5px" font-weight="bold" font-family="'Helvetica Neue', Helvetica, Arial-Unicode, Arial, Sans-serif">Created by Vectors Point</text><text x="0" y="50" fill="#000000" font-size="5px" font-weight="bold" font-family="'Helvetica Neue', Helvetica, Arial-Unicode, Arial, Sans-serif">from the Noun Project</text></svg>