<svg xmlns="http://www.w3.org/2000/svg" viewBox="0 0 64 80" x="0px" y="0px"><g data-name="Glyph icon"><path d="M55.57,21.71a22.12,22.12,0,0,0-44.18-.15,6.62,6.62,0,0,0-6,6.58v1.5a5.08,5.08,0,0,0,0,8.15A7.05,7.05,0,0,0,5.54,39c-.64,5.29.71,14.65,16,19.65,0,.05,0,.09,0,.14a4.52,4.52,0,1,0,.32-1.62C10,53.25,7.2,46.65,6.94,41.78a6.62,6.62,0,0,0,5,2.33h.2a6.62,6.62,0,0,0,6.61-6.61V28.14a6.62,6.62,0,0,0-5.89-6.57,20.62,20.62,0,0,1,41.16,0h-.18a6.62,6.62,0,0,0-6.61,6.61V37.5a6.62,6.62,0,0,0,6.61,6.61h.2a6.62,6.62,0,0,0,6.61-6.61V28.14A6.62,6.62,0,0,0,55.57,21.71ZM5.36,35.6a3.58,3.58,0,0,1,0-3.78Z"/></g><text x="0" y="79" fill="#000000" font-size="5px" font-weight="bold" font-family="'Helvetica Neue', Helvetica, Arial-Unicode, Arial, Sans-serif">Created by Maqsood Ahmed</text><text x="0" y="84" fill="#000000" font-size="5px" font-weight="bold" font-family="'Helvetica Neue', Helvetica, Arial-Unicode, Arial, Sans-serif">from the Noun Project</text></svg>