<svg xmlns="http://www.w3.org/2000/svg" data-name="Layer 1" viewBox="0 0 100 125" x="0px" y="0px">
    <path fill="#ffff" d="M38.75,55.625c0,.637,.056,1.275,.169,1.875h-14.888c1.556-1.669,3.525-2.869,5.737-3.506l8.981-2.644v4.275Z"/>
    <path fill="#ffff" d="M76.85,58.494c-.431,.281-.825,.638-1.162,1.05-.413-.094-.863-.169-1.313-.169-3.094,0-5.625,2.531-5.625,5.625v.544c0,1.969,.638,3.825,1.819,5.362-1.669,.45-3.112,1.444-4.106,2.794l.394-6.244c.169-2.569-.75-5.119-2.531-6.994-.956-1.012-2.1-1.8-3.375-2.269,.206-.825,.3-1.688,.3-2.569v-4.275l8.981,2.644c2.625,.75,4.931,2.325,6.619,4.5Z"/>
    <path fill="#ffff" d="M42.5,16.25h15c5.641,0,10.312,4.178,11.115,9.599,.035,.008,.067,.023,.101,.031,3.47-9.776-2.812-20.881-12.375-20.881h-15.373c-1.22,0-2.263,.864-2.477,2.066-.106,.592-.204,1.289-.267,2.06v-.013c-5.128,2.043-10.215,8.148-6.766,16.258,.999-5.188,5.567-9.12,11.042-9.12Z"/>
    <path fill="#ffff" d="M57.5,53.919v1.706c0,.656-.075,1.275-.244,1.875h-14.512c-.169-.6-.244-1.219-.244-1.875v-1.706c2.006,1.106,4.275,1.706,6.637,1.706h1.725c2.362,0,4.631-.6,6.637-1.706Z"/>
    <path fill="#ffff" d="M66.875,29.375h-1.875v-1.875c0-4.142-3.358-7.5-7.5-7.5h-15c-4.142,0-7.5,3.358-7.5,7.5v1.875h-1.875c-2.071,0-3.75,1.679-3.75,3.75,0,3.899,2.986,7.066,6.791,7.428,.929,2.533,2.382,4.869,4.326,6.813l1.579,1.579c1.875,1.875,4.419,2.929,7.071,2.929h1.716c2.652,0,5.196-1.054,7.071-2.929l1.579-1.579c1.945-1.945,3.398-4.28,4.326-6.813,3.804-.363,6.791-3.529,6.791-7.428,0-2.071-1.679-3.75-3.75-3.75Zm-24.375,3.75v-1.875c0-1.035,.84-1.875,1.875-1.875s1.875,.84,1.875,1.875v1.875c0,1.035-.84,1.875-1.875,1.875s-1.875-.84-1.875-1.875Zm11.638,10.701c-.152,.152-1.561,1.487-4.138,1.487s-3.986-1.335-4.138-1.487c-.732-.732-.732-1.919,0-2.651,.72-.717,1.876-.732,2.609-.04,.064,.051,.564,.428,1.529,.428,1.014,0,1.514-.417,1.535-.434,.765-.655,1.941-.612,2.624,.126,.683,.74,.691,1.859-.021,2.571Zm3.362-10.701c0,1.035-.84,1.875-1.875,1.875s-1.875-.84-1.875-1.875v-1.875c0-1.035,.84-1.875,1.875-1.875s1.875,.84,1.875,1.875v1.875Z"/>
    <path fill="#ffff" d="M61.6,63.024c-1.058-1.128-2.552-1.774-4.1-1.774H18.125c-1.547,0-3.041,.646-4.1,1.774-1.06,1.128-1.611,2.659-1.514,4.202l1.406,22.498c.183,2.959,2.65,5.275,5.614,5.275H56.094c2.964,0,5.431-2.316,5.614-5.273l1.406-22.5c.097-1.544-.454-3.074-1.514-4.202Zm-23.787,18.851c-2.589,0-4.688-2.099-4.688-4.688s2.099-4.687,4.688-4.687,4.688,2.099,4.688,4.687-2.099,4.688-4.688,4.688Z"/>
    <path fill="#ffff" d="M80,95h-3.75c-4.136,0-7.5-3.364-7.5-7.5v-9.375c0-2.067,1.683-3.75,3.75-3.75h11.25c2.067,0,3.75,1.683,3.75,3.75v9.375c0,4.136-3.364,7.5-7.5,7.5Z"/>
    <path fill="#ffff" d="M76.25,72.5c-1.036,0-1.875-.84-1.875-1.875v-.549c0-.354-.137-.687-.388-.938-.959-.959-1.487-2.233-1.487-3.589v-.549c0-1.035,.839-1.875,1.875-1.875s1.875,.84,1.875,1.875v.549c0,.354,.137,.687,.388,.937,.959,.959,1.487,2.233,1.487,3.589v.549c0,1.035-.839,1.875-1.875,1.875Z"/>
    <path fill="#ffff" d="M81.875,70.625c-1.036,0-1.875-.84-1.875-1.875v-.549c0-.354-.137-.687-.388-.937-.959-.959-1.487-2.233-1.487-3.589v-.549c0-1.035,.839-1.875,1.875-1.875s1.875,.84,1.875,1.875v.549c0,.354,.137,.687,.388,.938,.959,.959,1.487,2.233,1.487,3.589v.549c0,1.035-.839,1.875-1.875,1.875Z"/>
    
</svg>
