<svg xmlns="http://www.w3.org/2000/svg" viewBox="0 0 48 60" x="0px" y="0px">
  <g>
    <path d="M22.862,31.32v1.24a1.5,1.5,0,0,1-1.5,1.5h-1.24a1.5,1.5,0,0,1-1.5-1.5V31.32a1.5,1.5,0,0,1,1.5-1.5h1.24A1.5,1.5,0,0,1,22.862,31.32Zm-1.5,3.74h-1.24a1.5,1.5,0,0,0-1.5,1.5V37.8a1.5,1.5,0,0,0,1.5,1.5h1.24a1.5,1.5,0,0,0,1.5-1.5V36.56A1.5,1.5,0,0,0,21.362,35.06Zm5.24-5.24h-1.24a1.5,1.5,0,0,0-1.5,1.5v1.24a1.5,1.5,0,0,0,1.5,1.5H26.6a1.5,1.5,0,0,0,1.5-1.5V31.32A1.5,1.5,0,0,0,26.6,29.82Zm0,5.24h-1.24a1.5,1.5,0,0,0-1.5,1.5V37.8a1.5,1.5,0,0,0,1.5,1.5H26.6a1.5,1.5,0,0,0,1.5-1.5V36.56A1.5,1.5,0,0,0,26.6,35.06Zm5.24-5.24H30.6a1.5,1.5,0,0,0-1.5,1.5V37.8a1.5,1.5,0,0,0,1.5,1.5h1.24a1.5,1.5,0,0,0,1.5-1.5V31.32A1.5,1.5,0,0,0,31.842,29.82Zm0-9.48H20.122a1.5,1.5,0,0,0-1.5,1.5v4.48a1.5,1.5,0,0,0,1.5,1.5h11.72a1.5,1.5,0,0,0,1.5-1.5V21.84A1.5,1.5,0,0,0,31.842,20.34ZM10.7,26.35a.5.5,0,0,0,0-1H5.977a.5.5,0,0,0,0,1ZM23.041,13.584a.547.547,0,0,0,.09.008.5.5,0,0,0,.491-.411,9.138,9.138,0,0,1,1.7-3.865.5.5,0,1,0-.8-.6A10.131,10.131,0,0,0,22.638,13,.5.5,0,0,0,23.041,13.584Zm11.541-.274h6.61a.5.5,0,0,0,.5-.5,7.119,7.119,0,0,0-7.11-7.11.5.5,0,0,0-.5.5v6.61A.5.5,0,0,0,34.582,13.31Zm9.289,23.914a1.357,1.357,0,1,1,0-1.919A1.356,1.356,0,0,1,43.871,37.224Zm-.6-.96a.357.357,0,0,0-.714,0,.36.36,0,0,0,.1.253.367.367,0,0,0,.505,0A.359.359,0,0,0,43.268,36.264Zm-3.794-2.051a1.356,1.356,0,0,1-.96-2.316h0a1.36,1.36,0,0,1,1.919,0,1.356,1.356,0,0,1-.959,2.316Zm.252-1.1a.355.355,0,0,0,0-.5.357.357,0,1,0,0,.5Zm3.355-.517a.5.5,0,0,0-.707,0l-3.135,3.135a.5.5,0,1,0,.707.707L43.081,33.3A.5.5,0,0,0,43.081,32.592Zm-6.739-5.964V38.8a3.5,3.5,0,0,1-3.5,3.5H19.122a3.508,3.508,0,0,1-3.428-2.783l-1.357.847a.5.5,0,0,1-.733-.249L12.177,36.3,5.544,40.366a.5.5,0,1,1-.522-.852l7.15-4.38a.5.5,0,0,1,.729.251l1.425,3.807,1.3-.809V23.35H4.232a.5.5,0,1,1,0-1h.55V16.72a.5.5,0,0,1,.5-.5h2.75a.5.5,0,0,1,.5.5v5.63h.65V14.72a.5.5,0,0,1,.5-.5h2.75a.5.5,0,0,1,.5.5v7.63h.64V12.72a.5.5,0,0,1,.5-.5h2.75a.5.5,0,0,1,.5.5v5.13a3.371,3.371,0,0,1,1.8-.51h6.82a6.97,6.97,0,0,1-.47-2.53,7.117,7.117,0,0,1,7.1-7.11.5.5,0,0,1,.5.5v6.11h6.11a.5.5,0,0,1,.5.5,7.078,7.078,0,0,1-3.34,6.02v4.619l3.4-2.126-1.638-.216a.5.5,0,1,1,.131-.991l3.019.4c.008,0,.015.007,.023.008a.343.343,0,0,1,.046.011.2.2,0,0,1,.024,0,.291.291,0,0,1,.045.026.4.4,0,0,1,.066.031.327.327,0,0,1,.037.028.533.533,0,0,1,.054.052.488.488,0,0,1,.047.055c0,.006.013.01.017.017s0,.015.008.023a.53.53,0,0,1,.028.065.553.553,0,0,1,.024.072c0,.015.007.03.009.046a.593.593,0,0,1,0,.073.449.449,0,0,1,0,.051c0,.009-.006.015-.007.024s-.007.03-.011.046a.208.208,0,0,0,0,.023L40.7,26.057a.5.5,0,0,1-.474.341.511.511,0,0,1-.158-.025.5.5,0,0,1-.316-.633l.525-1.569Zm-1-5.788a.757.757,0,0,0-.01-.15v-.01a.97.97,0,0,0-.01-.17V20.5a2.511,2.511,0,0,0-2.48-2.16H19.122a2.5,2.5,0,0,0-1.88.85.435.435,0,0,1-.06.07,2.494,2.494,0,0,0-.56,1.58V38.8a2.5,2.5,0,0,0,2.5,2.5h13.72a2.507,2.507,0,0,0,2.5-2.5ZM13.62,25.9a.5.5,0,1,0-.5.5A.5.5,0,0,0,13.62,25.9Z" style="fill: #96e652;"/>
  </g>
</svg>
