<svg xmlns="http://www.w3.org/2000/svg" xmlns:xlink="http://www.w3.org/1999/xlink" version="1.1" x="0px" y="0px" viewBox="0 0 164 205" enable-background="new 0 0 164 164" xml:space="preserve"><g><g><path fill="#white" d="M159.4,85.6c0-24.5-11.8-47.7-31.5-62.3l2-4.7c0.2-0.4,0-1-0.4-1.2c-0.4-0.2-0.9-0.1-1.2,0.2l-3,3.8    c-7.2-4.9-15-8.5-23.4-10.7c-4-5.2-10.1-8.9-17-9.6c-7.3-0.8-14.2,1.4-19.6,6.2c-1.2,1-2.2,2.2-3.1,3.4    c-8.3,2.2-16.2,5.8-23.4,10.7l-3-3.8c-0.3-0.4-0.8-0.5-1.2-0.2c-0.4,0.2-0.6,0.8-0.4,1.2l2,4.7C16.4,37.9,4.6,61.1,4.6,85.6    C4.6,128.3,39.4,163,82,163C124.7,163,159.4,128.2,159.4,85.6z M122,33.4c0.2,0.3,0.5,0.4,0.8,0.4h5.7l-10.2,11l1.9-4.6    c0.1-0.3,0.1-0.6-0.1-0.9c-0.2-0.3-0.5-0.4-0.8-0.4H114l11.3-14.4l-3.4,7.9C121.8,32.8,121.8,33.1,122,33.4z M66.5,8.8    c5-4.5,11.4-6.5,18.2-5.8c10.8,1.2,19.4,9.9,20.4,20.8c0.5,5.2-0.7,10.3-3.5,14.7c-5.2,8.2-8.4,17.3-9.2,26.3h-7.3V40.6h2.2    c2.3,0,4.2-1.9,4.2-4.2c0-2.3-1.9-4.2-4.2-4.2c-2.3,0-4.2,1.9-4.2,4.2v2.2h-2.6v-2.2c0-2.3-1.9-4.2-4.2-4.2    c-2.3,0-4.2,1.9-4.2,4.2c0,2.3,1.9,4.2,4.2,4.2h2.2v24.2h-7.2c-0.8-9.3-3.9-18.2-8.9-25.7c-2.6-3.8-3.9-8.3-3.9-12.9    C58.8,19.5,61.6,13.2,66.5,8.8z M96.3,69.4H67.7v-0.7c0-1.1,0.9-2,2-2h1h22.7h1c1.1,0,2,0.9,2,2V69.4z M92.3,83.9H71.7h-2    c-1.1,0-2-0.9-2-2v-0.7h28.6v0.7c0,1.1-0.9,2-2,2H92.3z M90.8,85.8L89.1,89H74.9l-1.7-3.2H90.8z M67.7,79.2v-3h28.6v3H67.7z     M67.7,74.3v-3h28.6v3H67.7z M78.8,38.7h-2.2c-1.2,0-2.2-1-2.2-2.2s1-2.2,2.2-2.2s2.2,1,2.2,2.2V38.7z M83.3,64.8h-2.6V40.6h2.6    V64.8z M85.2,38.7v-2.2c0-1.2,1-2.2,2.2-2.2c1.2,0,2.2,1,2.2,2.2s-1,2.2-2.2,2.2H85.2z M43.8,40.3l1.9,4.6l-10.2-11h5.7    c0.3,0,0.6-0.2,0.8-0.4c0.2-0.3,0.2-0.6,0.1-0.9l-3.4-7.9L50,39h-5.3c-0.3,0-0.6,0.2-0.8,0.4C43.7,39.7,43.7,40,43.8,40.3z     M6.5,85.6c0-23.8,11.3-46.3,30.3-60.5l2.9,6.8h-6.4c-0.4,0-0.7,0.2-0.9,0.6c-0.2,0.3-0.1,0.8,0.2,1L48,50.1    c0.3,0.3,0.8,0.4,1.2,0.2c0.4-0.3,0.5-0.7,0.4-1.2l-3.4-8.2H52c0.4,0,0.7-0.2,0.9-0.5c0.2-0.3,0.1-0.7-0.1-1L39.9,23    c6.4-4.3,13.2-7.5,20.5-9.7c-2.3,3.9-3.6,8.3-3.6,12.9c0,5,1.5,9.8,4.2,14c4.8,7.2,7.8,15.7,8.5,24.7c-2.1,0-3.9,1.8-3.9,3.9v0.7    h-0.4c-0.5,0-1,0.4-1,1c0,0.5,0.4,1,1,1h0.4v3h-0.4c-0.5,0-1,0.4-1,1c0,0.5,0.4,1,1,1h0.4v3h-0.4c-0.5,0-1,0.4-1,1    c0,0.5,0.4,1,1,1h0.4v0.7c0,2.2,1.8,3.9,3.9,3.9h1.4l2.4,4.6c0.2,0.3,0.5,0.5,0.8,0.5h15.4c0.4,0,0.7-0.2,0.8-0.5l2.4-4.6h1.4    c2.2,0,3.9-1.8,3.9-3.9v-0.7h0.4c0.5,0,1-0.4,1-1c0-0.5-0.4-1-1-1h-0.4v-3h0.4c0.5,0,1-0.4,1-1c0-0.5-0.4-1-1-1h-0.4v-3h0.4    c0.5,0,1-0.4,1-1c0-0.5-0.4-1-1-1h-0.4v-0.7c0-2.1-1.7-3.9-3.8-3.9c0.8-8.6,3.9-17.3,8.9-25.2c3-4.7,4.3-10.2,3.8-15.9    c-0.4-3.8-1.6-7.3-3.4-10.4c7.3,2.2,14.2,5.4,20.5,9.7l-12.8,16.3c-0.2,0.3-0.3,0.7-0.1,1c0.2,0.3,0.5,0.5,0.9,0.5h5.8l-3.4,8.2    c-0.3,0.6,0.2,1.3,0.9,1.3c0.3,0,0.5-0.1,0.7-0.3l15.3-16.6c0.3-0.3,0.3-0.7,0.2-1c-0.2-0.3-0.5-0.6-0.9-0.6h-6.4l2.9-6.8    c19,14.2,30.3,36.7,30.3,60.5c0,21-8.6,40-22.5,53.7H94.7c17.5-5.4,30.3-21.8,30.3-41.1V74.5v-5.1V57.5c0-0.5-0.4-1-1-1h-17.7    c-0.5,0-1,0.4-1,1v11.9v5.1v23.8c0,12.9-10.5,23.4-23.4,23.4s-23.4-10.5-23.4-23.4V74.5v-5.1V57.5c0-0.5-0.4-1-1-1H39.9    c-0.5,0-1,0.4-1,1v11.9v5.1v23.8c0,19.3,12.8,35.7,30.3,41.1H29C15.1,125.6,6.5,106.6,6.5,85.6z M40.9,70.3h15.8v3.2H40.9V70.3z     M56.7,68.4H40.9v-9.9h15.8V68.4z M40.9,75.4h15.8v22.8c0,14,11.4,25.3,25.3,25.3c14,0,25.3-11.4,25.3-25.3V75.4h15.8v22.8    c0,22.7-18.4,41.1-41.1,41.1c-22.7,0-41.1-18.4-41.1-41.1V75.4z M107.3,70.3h15.8v3.2h-15.8V70.3z M123.1,68.4h-15.8v-9.9h15.8    V68.4z M31,141.2H133c-13.4,12.3-31.3,19.9-51,19.9C62.4,161.1,44.5,153.6,31,141.2z"/></g><g><path fill="#white" d="M79.8,147c0-0.5-0.4-1-1-1H55.7c-0.5,0-1,0.4-1,1s0.4,1,1,1h23.2C79.4,148,79.8,147.5,79.8,147z"/></g><g><path fill="#white" d="M87.3,147c0-0.5-0.4-1-1-1h-3.8c-0.5,0-1,0.4-1,1s0.4,1,1,1h3.8C86.9,148,87.3,147.5,87.3,147z"/></g><g><path fill="#white" d="M89.6,148h2.5c0.5,0,1-0.4,1-1s-0.4-1-1-1h-2.5c-0.5,0-1,0.4-1,1S89.1,148,89.6,148z"/></g><g><path fill="#white" d="M108.3,150.7H85.2c-0.5,0-1,0.4-1,1c0,0.5,0.4,1,1,1h23.2c0.5,0,1-0.4,1-1C109.3,151.2,108.8,150.7,108.3,150.7z"/></g><g><path fill="#white" d="M81.5,150.7h-3.8c-0.5,0-1,0.4-1,1c0,0.5,0.4,1,1,1h3.8c0.5,0,1-0.4,1-1C82.4,151.2,82,150.7,81.5,150.7z"/></g><g><path fill="#white" d="M74.4,150.7h-2.5c-0.5,0-1,0.4-1,1c0,0.5,0.4,1,1,1h2.5c0.5,0,1-0.4,1-1C75.3,151.2,74.9,150.7,74.4,150.7z"/></g></g></svg>